:SAMPLES-PER-SECOND 30
:FULLY-SPECIFIED
:DEGREES
169
root  39.5598 39.455 -2.68316 119.157 82.6238 130.232
RightUpLeg  -15.3909 -15.0351 -10.4565
RightLeg  21.3377 -3.85279 -1.62582
RightFoot  5.44208 1.09426 -7.30892
RightToes  0.00048216 0.542163 -0.142577
Spine  13.109 -0.521857 -2.17825
Spine1  12.5892 -0.625274 -1.70484
HEad  -19.7244 24.8669 -8.55192
LeftShoulder1  7.67325 -11.9706 -43.1174
LeftArm  -9.27929 -12.6967 -23.8345
LeftForeArm  16.9896 -16.5874 -4.98155
LeftHand  -0.25398 0.0180481 5.50724
RightShoulder  4.41393 8.2309 31.6696
RightArm  -12.4616 -4.06214 45.1811
RightForeArm  4.25315 25.7637 5.28949
RightHand  -2.23728 5.96616 -22.9651
LeftUpLeg  12.8019 4.40963 -6.20131
LeftLeg  10.865 9.85096 -3.26649
LeftFoot  -11.7209 0.0840031 3.98594
LeftToes  1.0625e-005 4.65855e-005 -8.18498e-006
170
root  41.1087 39.2391 -2.67735 129.695 80.5688 139.874
RightUpLeg  -13.738 -14.0695 -11.6798
RightLeg  5.71676 -3.44619 1.70935
RightFoot  6.74311 0.0214077 0.392034
RightToes  0.00048216 0.542163 -0.142577
Spine  11.7913 -0.865701 -3.77904
Spine1  12.9586 -1.40514 -0.718263
HEad  -20.1001 25.6607 -8.13648
LeftShoulder1  7.44125 -11.8475 -42.0847
LeftArm  -10.574 -20.2545 -22.9519
LeftForeArm  14.5509 -19.7379 -4.37853
LeftHand  -0.25398 0.0180481 5.50724
RightShoulder  4.59581 8.48601 32.39
RightArm  -10.3435 -5.23647 44.679
RightForeArm  3.34086 22.4422 4.77003
RightHand  -2.17481 5.82811 -22.6097
LeftUpLeg  14.4301 4.42434 -6.14379
LeftLeg  11.1132 7.10601 -3.5272
LeftFoot  -13.8923 0.163028 3.62594
LeftToes  1.0625e-005 4.65855e-005 -8.18498e-006
171
root  42.7731 38.9478 -2.65934 137.065 78.5019 146.75
RightUpLeg  -11.8583 -11.8203 -13.3363
RightLeg  -4.20515 -5.96803 4.12058
RightFoot  4.19689 -0.971539 7.19971
RightToes  0.00048216 0.542163 -0.142577
Spine  10.8082 -1.15759 -5.06209
Spine1  13.1431 -2.10276 0.367922
HEad  -20.0329 25.682 -7.98157
LeftShoulder1  7.068 -11.6583 -40.3446
LeftArm  -13.237 -26.0337 -23.1667
LeftForeArm  19.1874 -24.3064 -4.15528
LeftHand  -0.25398 0.0180481 5.50724
RightShoulder  4.71314 8.66819 32.7807
RightArm  -9.26908 -6.53587 44.0947
RightForeArm  5.54574 18.2829 4.88114
RightHand  -2.05611 5.55412 -21.9318
LeftUpLeg  16.3009 4.95754 -5.30629
LeftLeg  12.017 3.59437 -3.72307
LeftFoot  -16.406 0.217718 2.70494
LeftToes  1.0625e-005 4.65855e-005 -8.18498e-006
172
root  44.4436 38.6704 -2.63462 142.74 76.9744 152.526
RightUpLeg  -11.8735 -11.9631 -12.7608
RightLeg  -3.80226 -5.52125 4.45682
RightFoot  4.45226 -0.799059 6.08623
RightToes  0.00048216 0.542163 -0.142577
Spine  10.7766 -1.30348 -5.35363
Spine1  13.2194 -2.60822 1.48729
HEad  -19.8475 25.5755 -8.21898
LeftShoulder1  6.59427 -11.424 -38.0171
LeftArm  -16.6862 -29.6735 -23.963
LeftForeArm  27.429 -30.5609 -5.1461
LeftHand  -0.25398 0.0180481 5.50724
RightShoulder  4.73417 8.81118 32.502
RightArm  -10.9958 -7.9379 44.095
RightForeArm  10.6689 13.6112 5.34844
RightHand  -1.9119 5.17512 -21.1497
LeftUpLeg  18.4934 6.23264 -3.5586
LeftLeg  13.4682 -0.193699 -3.45416
LeftFoot  -18.4445 0.215912 1.67978
LeftToes  1.0625e-005 4.65855e-005 -8.18498e-006
173
root  46.1115 38.4379 -2.60438 147.806 75.987 158.205
RightUpLeg  -12.215 -11.5602 -11.0855
RightLeg  1.52372 -3.59461 3.69415
RightFoot  9.17086 -0.511137 3.15217
RightToes  0.00048216 0.542163 -0.142577
Spine  11.4276 -1.4545 -4.44234
Spine1  13.4525 -2.95084 2.23882
HEad  -20.0871 25.7008 -9.06239
LeftShoulder1  6.0789 -11.0272 -35.7509
LeftArm  -17.8521 -31.8201 -24.5063
LeftForeArm  31.747 -36.208 -6.29813
LeftHand  -0.25398 0.0180481 5.50724
RightShoulder  4.73335 8.96977 32.0047
RightArm  -13.4189 -9.34522 44.459
RightForeArm  14.7996 9.08516 5.21484
RightHand  -1.7972 4.77913 -20.6645
LeftUpLeg  20.8127 7.6071 -1.30656
LeftLeg  15.6722 -3.44816 -2.48865
LeftFoot  -19.6 0.136304 0.302798
LeftToes  1.0625e-005 4.65855e-005 -8.18498e-006
174
root  47.8682 38.2185 -2.57154 152.543 75.0528 163.823
RightUpLeg  -12.4957 -13.0614 -9.09423
RightLeg  8.19311 0.154376 2.68671
RightFoot  13.5019 -0.780413 3.92232
RightToes  0.00048216 0.542163 -0.142577
Spine  12.0375 -1.76233 -2.93627
Spine1  13.7544 -3.16875 2.37791
HEad  -21.201 25.1113 -10.7829
LeftShoulder1  5.70866 -10.5805 -34.4781
LeftArm  -17.6837 -32.7764 -24.6238
LeftForeArm  30.9462 -38.8448 -7.07371
LeftHand  -0.25398 0.0180481 5.50724
RightShoulder  4.80661 9.11534 32.1472
RightArm  -14.5413 -10.672 44.1356
RightForeArm  15.7739 5.42738 4.57334
RightHand  -1.71099 4.37517 -20.4809
LeftUpLeg  22.3805 7.18395 0.755125
LeftLeg  19.5395 -4.86683 -1.69745
LeftFoot  -19.8636 -0.0997795 -2.94493
LeftToes  1.0625e-005 4.65855e-005 -8.18498e-006
175
root  49.6186 38.1611 -2.54612 158.234 74.0312 170.048
RightUpLeg  -12.3429 -16.2151 -7.15267
RightLeg  13.5043 3.98148 2.15452
RightFoot  13.1658 -1.6961 8.29861
RightToes  0.00048216 0.542163 -0.142577
Spine  12.3049 -2.11347 -0.846794
Spine1  13.9481 -3.26766 2.51283
HEad  -21.3222 24.4029 -11.4934
LeftShoulder1  5.68016 -10.4632 -34.6062
LeftArm  -17.3051 -32.0881 -24.9143
LeftForeArm  27.1522 -38.5478 -7.22976
LeftHand  -0.25398 0.0180481 5.50724
RightShoulder  4.9255 9.19324 32.8516
RightArm  -15.4834 -12.0579 42.9825
RightForeArm  15.5618 3.07945 4.02954
RightHand  -1.61575 3.91587 -20.286
LeftUpLeg  21.6529 4.91743 2.87843
LeftLeg  25.6076 -4.38276 -1.93244
LeftFoot  -16.9995 -0.265953 -7.91397
LeftToes  1.0625e-005 4.65855e-005 -8.18498e-006
176
root  51.2426 38.2452 -2.50985 165.177 72.4664 176.827
RightUpLeg  -12.1365 -19.2036 -5.32192
RightLeg  17.9307 5.55832 2.06099
RightFoot  8.49623 -1.70118 9.94108
RightToes  0.00048216 0.542163 -0.142577
Spine  12.2227 -2.53403 1.58925
Spine1  13.7682 -3.34001 3.04924
HEad  -20.5268 23.72 -10.8457
LeftShoulder1  5.95654 -10.7347 -35.7484
LeftArm  -16.8756 -29.7607 -25.4939
LeftForeArm  23.3583 -36.7077 -6.94382
LeftHand  -0.25398 0.0180481 5.50724
RightShoulder  4.96134 9.19506 33.1272
RightArm  -16.4617 -13.8082 42.2033
RightForeArm  14.9124 2.47409 3.67636
RightHand  -1.51021 3.4393 -19.9793
LeftUpLeg  17.284 3.30191 5.82147
LeftLeg  34.9249 -3.6466 -2.35129
LeftFoot  -8.48658 0.30811 -11.0371
LeftToes  1.0625e-005 4.65855e-005 -8.18498e-006
177
root  52.6927 38.2753 -2.47581 171.788 69.8832 -177.129
RightUpLeg  -11.8938 -21.5227 -3.65784
RightLeg  21.7442 4.8223 1.97716
RightFoot  3.67651 -0.98654 7.665
RightToes  0.00048216 0.542163 -0.142577
Spine  11.9649 -3.1945 4.32957
Spine1  13.4425 -3.40476 3.58191
HEad  -19.8396 22.9944 -9.31901
LeftShoulder1  6.32851 -11.0676 -37.3034
LeftArm  -15.171 -26.8686 -25.9382
LeftForeArm  21.5304 -34.0517 -6.34209
LeftHand  -0.25398 0.0180481 5.50724
RightShoulder  4.8737 9.10267 32.7184
RightArm  -16.8869 -15.8141 42.1853
RightForeArm  13.4196 3.62233 3.78763
RightHand  -1.47002 3.25509 -19.8597
LeftUpLeg  9.92567 1.55853 8.47596
LeftLeg  45.9776 -1.73383 -1.46825
LeftFoot  3.74117 1.24195 -9.74501
LeftToes  1.0625e-005 4.65855e-005 -8.18498e-006
178
root  54.0802 38.3024 -2.4885 175.663 66.859 -173.608
RightUpLeg  -10.5705 -22.9816 -2.7899
RightLeg  23.7236 3.13845 1.79166
RightFoot  1.39893 -0.595113 5.4527
RightToes  0.00048216 0.542163 -0.142577
Spine  11.6063 -3.72239 7.14299
Spine1  13.5172 -3.15265 3.40284
HEad  -19.9113 21.7914 -7.67837
LeftShoulder1  6.70136 -11.3487 -38.9233
LeftArm  -11.5032 -24.0306 -26.2436
LeftForeArm  22.4457 -30.7942 -5.47594
LeftHand  -0.25398 0.0180481 5.50724
RightShoulder  4.76323 8.89093 32.4895
RightArm  -15.863 -17.2733 41.7204
RightForeArm  11.055 5.83867 4.51934
RightHand  -1.57952 3.73369 -20.2189
LeftUpLeg  2.41369 -0.0156498 10.0293
LeftLeg  55.1234 0.495732 1.26796
LeftFoot  11.9367 1.28346 -6.51868
LeftToes  1.0625e-005 4.65855e-005 -8.18498e-006
179
root  55.5767 38.5723 -2.54908 175.663 64.6635 -173.622
RightUpLeg  -7.39022 -22.623 -3.49508
RightLeg  23.3224 0.888975 1.72574
RightFoot  -0.00921113 -0.447518 4.50404
RightToes  0.00048216 0.542163 -0.142577
Spine  11.1144 -3.42796 8.67782
Spine1  14.0204 -2.27888 2.32022
HEad  -20.4778 20.0105 -6.45322
LeftShoulder1  7.10395 -11.7276 -40.3678
LeftArm  -7.51054 -20.3949 -26.8315
LeftForeArm  25.8062 -27.5426 -4.52685
LeftHand  -0.25398 0.0180481 5.50724
RightShoulder  4.72796 8.67416 32.8825
RightArm  -13.4619 -17.4764 39.9787
RightForeArm  9.27063 7.96742 5.47581
RightHand  -1.78237 4.60814 -20.8318
LeftUpLeg  -3.28651 -0.0496756 9.94438
LeftLeg  60.3398 2.23031 4.75906
LeftFoot  12.3857 0.759109 -3.92816
LeftToes  1.0625e-005 4.65855e-005 -8.18498e-006
